<svg width="22" height="32" viewBox="0 0 22 32" fill="none" xmlns="http://www.w3.org/2000/svg">
<path d="M11.7754 0.75C12.1664 0.750012 12.4668 1.07553 12.4668 1.45508C12.4669 5.89624 14.4097 9.6758 16.376 12.3623C17.3579 13.7038 18.3422 14.7685 19.0859 15.501C19.4577 15.8671 19.7691 16.15 19.9893 16.3428C20.0993 16.4391 20.1865 16.5131 20.2471 16.5635C20.2772 16.5885 20.301 16.6078 20.3174 16.6211C20.3333 16.634 20.3417 16.6408 20.3428 16.6416H20.3438C20.5815 16.8263 20.67 17.1431 20.5791 17.4238C20.4873 17.7073 20.2266 17.908 19.9229 17.9082C17.1154 17.9082 15.0547 18.4127 13.541 19.1484C16.8214 19.8899 19.5868 22.034 21.2178 24.9355L21.2871 25.0576L21.2178 25.1807C19.1811 28.8074 15.3694 31.25 11 31.25C6.63061 31.25 2.81893 28.8074 0.782227 25.1807L0.712891 25.0576L0.782227 24.9355C2.81884 21.3119 6.63039 18.8663 10.9941 18.8633L11.3828 18.8721C12.8724 17.7665 15.0152 16.8218 18.1543 16.5664C16.3923 14.8573 13.35 11.3981 11.8975 6.73145V14.4814C12.3337 14.7308 12.624 15.2071 12.624 15.748C12.6238 16.5418 11.9973 17.2012 11.2051 17.2012C10.4166 17.2011 9.78634 16.5455 9.78613 15.748C9.78613 15.2064 10.0797 14.7305 10.5137 14.4814V6.73926C8.45984 13.3334 3.22597 17.5188 2.91797 17.7607C2.79062 17.8636 2.6409 17.911 2.49414 17.9111C2.28233 17.9111 2.07645 17.8125 1.94043 17.6318L1.93945 17.6309C1.71171 17.3242 1.76669 16.883 2.06836 16.6455L2.07031 16.6445C2.0703 16.6445 2.0786 16.6379 2.0957 16.624C2.11213 16.6107 2.13585 16.5915 2.16602 16.5664C2.2266 16.516 2.31384 16.4421 2.42383 16.3457C2.644 16.1527 2.95533 15.8686 3.32715 15.502C4.07098 14.7685 5.05612 13.7027 6.03809 12.3604C8.00434 9.67231 9.94621 5.89306 9.94629 1.45801C9.94629 1.07452 10.2507 0.750108 10.6406 0.75H11.7754ZM11.6826 20.3701C11.1212 20.8623 10.6889 21.3875 10.3564 21.9053C10.564 21.8601 10.7791 21.8359 11 21.8359C12.738 21.8359 14.1374 23.2833 14.1377 25.0576C14.1377 26.8289 12.7413 28.2803 11 28.2803C10.5718 28.2803 10.1463 28.1914 9.75195 28.0156C9.00596 27.6829 8.51038 27.1786 8.2207 26.5742C7.93338 25.9746 7.85607 25.2921 7.91406 24.6064C8.02964 23.24 8.68743 21.8063 9.41797 20.8379L9.58789 20.6172C9.63898 20.5531 9.69169 20.4886 9.74609 20.4238C6.78467 20.8007 4.09215 22.4896 2.41309 25.0576C4.32471 27.9833 7.55452 29.7725 11 29.7725C14.4453 29.7725 17.6743 27.9831 19.5859 25.0605C17.7986 22.3289 14.8642 20.5892 11.6826 20.3701Z" fill="#063637" stroke="#063637" stroke-width="0.5"/>
</svg>
